<mxfile host="Electron" agent="Mozilla/5.0 (X11; Linux x86_64) AppleWebKit/537.36 (KHTML, like Gecko) draw.io/26.0.16 Chrome/132.0.6834.196 Electron/34.2.0 Safari/537.36" version="26.0.16">
  <diagram name="Page-1" id="97916047-d0de-89f5-080d-49f4d83e522f">
    <mxGraphModel dx="5185" dy="2995" grid="1" gridSize="10" guides="1" tooltips="1" connect="1" arrows="1" fold="1" page="1" pageScale="1.5" pageWidth="1169" pageHeight="827" background="none" math="0" shadow="0">
      <root>
        <mxCell id="0" />
        <mxCell id="1" parent="0" />
        <mxCell id="2" value="MoodSocial" style="rounded=1;fillColor=#10739E;strokeColor=none;shadow=1;gradientColor=none;fontStyle=1;fontColor=#FFFFFF;fontSize=14;" parent="1" vertex="1">
          <mxGeometry x="520" y="350" width="200" height="60" as="geometry" />
        </mxCell>
        <mxCell id="ibaPYq17Of_60Ao_4P2H-57" value="" style="edgeStyle=elbowEdgeStyle;elbow=vertical;strokeWidth=4;endArrow=block;endFill=1;fontStyle=1;dashed=1;strokeColor=#23445D;entryX=0.5;entryY=0;entryDx=0;entryDy=0;exitX=0.75;exitY=1;exitDx=0;exitDy=0;" edge="1" parent="1" source="ibaPYq17Of_60Ao_4P2H-80" target="ibaPYq17Of_60Ao_4P2H-86">
          <mxGeometry x="22" y="165.5" width="100" height="100" as="geometry">
            <mxPoint x="1939.41" y="770" as="sourcePoint" />
            <mxPoint x="1939.41" y="850" as="targetPoint" />
            <Array as="points">
              <mxPoint x="1929.41" y="800" />
            </Array>
          </mxGeometry>
        </mxCell>
        <mxCell id="ibaPYq17Of_60Ao_4P2H-58" value="" style="edgeStyle=elbowEdgeStyle;elbow=vertical;strokeWidth=4;endArrow=block;endFill=1;fontStyle=1;strokeColor=#23445D;entryX=0.5;entryY=0;entryDx=0;entryDy=0;exitX=0.5;exitY=1;exitDx=0;exitDy=0;" edge="1" parent="1" source="2" target="ibaPYq17Of_60Ao_4P2H-59">
          <mxGeometry x="22" y="165.5" width="100" height="100" as="geometry">
            <mxPoint x="939.4100000000001" y="460" as="sourcePoint" />
            <mxPoint x="939.4100000000001" y="540" as="targetPoint" />
            <Array as="points">
              <mxPoint x="1030" y="520" />
            </Array>
          </mxGeometry>
        </mxCell>
        <mxCell id="ibaPYq17Of_60Ao_4P2H-59" value="private" style="rounded=1;fillColor=#10739E;strokeColor=none;shadow=1;gradientColor=none;fontStyle=1;fontColor=#FFFFFF;fontSize=14;" vertex="1" parent="1">
          <mxGeometry x="1360" y="550" width="200" height="60" as="geometry" />
        </mxCell>
        <mxCell id="ibaPYq17Of_60Ao_4P2H-60" value="config" style="rounded=1;fillColor=#10739E;strokeColor=none;shadow=1;gradientColor=none;fontStyle=1;fontColor=#FFFFFF;fontSize=14;" vertex="1" parent="1">
          <mxGeometry x="600" y="550" width="200" height="60" as="geometry" />
        </mxCell>
        <mxCell id="ibaPYq17Of_60Ao_4P2H-61" value=".htaccess" style="rounded=1;fillColor=#10739E;strokeColor=none;shadow=1;gradientColor=none;fontStyle=1;fontColor=#FFFFFF;fontSize=14;" vertex="1" parent="1">
          <mxGeometry x="360" y="550" width="200" height="60" as="geometry" />
        </mxCell>
        <mxCell id="ibaPYq17Of_60Ao_4P2H-63" value="public" style="rounded=1;fillColor=#10739E;strokeColor=none;shadow=1;gradientColor=none;fontStyle=1;fontColor=#FFFFFF;fontSize=14;" vertex="1" parent="1">
          <mxGeometry x="2120" y="550" width="200" height="60" as="geometry" />
        </mxCell>
        <mxCell id="ibaPYq17Of_60Ao_4P2H-64" value="" style="edgeStyle=elbowEdgeStyle;elbow=vertical;strokeWidth=4;endArrow=block;endFill=1;fontStyle=1;dashed=1;strokeColor=#23445D;entryX=0.5;entryY=0;entryDx=0;entryDy=0;exitX=0.25;exitY=1;exitDx=0;exitDy=0;" edge="1" parent="1" source="2" target="ibaPYq17Of_60Ao_4P2H-61">
          <mxGeometry x="22" y="165.5" width="100" height="100" as="geometry">
            <mxPoint x="550" y="410" as="sourcePoint" />
            <mxPoint x="550" y="490" as="targetPoint" />
            <Array as="points">
              <mxPoint x="520" y="480" />
            </Array>
          </mxGeometry>
        </mxCell>
        <mxCell id="ibaPYq17Of_60Ao_4P2H-65" value="" style="edgeStyle=elbowEdgeStyle;elbow=vertical;strokeWidth=4;endArrow=block;endFill=1;fontStyle=1;strokeColor=#23445D;exitX=0.5;exitY=1;exitDx=0;exitDy=0;entryX=0.5;entryY=0;entryDx=0;entryDy=0;" edge="1" parent="1" source="2" target="ibaPYq17Of_60Ao_4P2H-60">
          <mxGeometry x="22" y="165.5" width="100" height="100" as="geometry">
            <mxPoint x="660" y="440" as="sourcePoint" />
            <mxPoint x="660" y="520" as="targetPoint" />
            <Array as="points">
              <mxPoint x="660" y="520" />
            </Array>
          </mxGeometry>
        </mxCell>
        <mxCell id="ibaPYq17Of_60Ao_4P2H-66" value="" style="edgeStyle=elbowEdgeStyle;elbow=vertical;strokeWidth=4;endArrow=block;endFill=1;fontStyle=1;strokeColor=#23445D;" edge="1" parent="1">
          <mxGeometry x="22" y="165.5" width="100" height="100" as="geometry">
            <mxPoint x="990" y="320" as="sourcePoint" />
            <mxPoint x="990" y="400" as="targetPoint" />
          </mxGeometry>
        </mxCell>
        <mxCell id="ibaPYq17Of_60Ao_4P2H-67" value="" style="edgeStyle=elbowEdgeStyle;elbow=vertical;strokeWidth=4;endArrow=block;endFill=1;fontStyle=1;strokeColor=#23445D;entryX=0.5;entryY=0;entryDx=0;entryDy=0;exitX=0.5;exitY=1;exitDx=0;exitDy=0;" edge="1" parent="1" source="2" target="ibaPYq17Of_60Ao_4P2H-63">
          <mxGeometry x="22" y="165.5" width="100" height="100" as="geometry">
            <mxPoint x="1179.4099999999999" y="460" as="sourcePoint" />
            <mxPoint x="1179.4099999999999" y="540" as="targetPoint" />
            <Array as="points">
              <mxPoint x="1400" y="520" />
            </Array>
          </mxGeometry>
        </mxCell>
        <mxCell id="ibaPYq17Of_60Ao_4P2H-69" value="resources" style="rounded=1;fillColor=#10739E;strokeColor=none;shadow=1;gradientColor=none;fontStyle=1;fontColor=#FFFFFF;fontSize=14;" vertex="1" parent="1">
          <mxGeometry x="2880" y="550" width="200" height="60" as="geometry" />
        </mxCell>
        <mxCell id="ibaPYq17Of_60Ao_4P2H-70" value="view" style="rounded=1;fillColor=#10739E;strokeColor=none;shadow=1;gradientColor=none;fontStyle=1;fontColor=#FFFFFF;fontSize=14;" vertex="1" parent="1">
          <mxGeometry x="4840" y="550" width="200" height="60" as="geometry" />
        </mxCell>
        <mxCell id="ibaPYq17Of_60Ao_4P2H-71" value="" style="edgeStyle=elbowEdgeStyle;elbow=vertical;strokeWidth=4;endArrow=block;endFill=1;fontStyle=1;strokeColor=#23445D;entryX=0.5;entryY=0;entryDx=0;entryDy=0;exitX=0.5;exitY=1;exitDx=0;exitDy=0;" edge="1" parent="1" source="2" target="ibaPYq17Of_60Ao_4P2H-69">
          <mxGeometry x="22" y="165.5" width="100" height="100" as="geometry">
            <mxPoint x="880" y="380" as="sourcePoint" />
            <mxPoint x="1440" y="520" as="targetPoint" />
            <Array as="points">
              <mxPoint x="1790" y="520" />
            </Array>
          </mxGeometry>
        </mxCell>
        <mxCell id="ibaPYq17Of_60Ao_4P2H-72" value="" style="edgeStyle=elbowEdgeStyle;elbow=vertical;strokeWidth=4;endArrow=block;endFill=1;fontStyle=1;strokeColor=#23445D;entryX=0.5;entryY=0;entryDx=0;entryDy=0;exitX=0.5;exitY=1;exitDx=0;exitDy=0;" edge="1" parent="1" source="2" target="ibaPYq17Of_60Ao_4P2H-70">
          <mxGeometry x="22" y="165.5" width="100" height="100" as="geometry">
            <mxPoint x="860" y="400" as="sourcePoint" />
            <mxPoint x="1660" y="540" as="targetPoint" />
            <Array as="points">
              <mxPoint x="2240" y="520" />
            </Array>
          </mxGeometry>
        </mxCell>
        <mxCell id="ibaPYq17Of_60Ao_4P2H-74" value="" style="edgeStyle=elbowEdgeStyle;elbow=vertical;strokeWidth=4;endArrow=block;endFill=1;fontStyle=1;dashed=1;strokeColor=#23445D;exitX=0.5;exitY=1;exitDx=0;exitDy=0;entryX=0.5;entryY=0;entryDx=0;entryDy=0;" edge="1" parent="1" source="ibaPYq17Of_60Ao_4P2H-60" target="ibaPYq17Of_60Ao_4P2H-75">
          <mxGeometry x="22" y="165.5" width="100" height="100" as="geometry">
            <mxPoint x="699.4100000000001" y="630" as="sourcePoint" />
            <mxPoint x="699.4100000000001" y="710" as="targetPoint" />
            <Array as="points" />
          </mxGeometry>
        </mxCell>
        <mxCell id="ibaPYq17Of_60Ao_4P2H-75" value="app.php" style="rounded=1;fillColor=#10739E;strokeColor=none;shadow=1;gradientColor=none;fontStyle=1;fontColor=#FFFFFF;fontSize=14;" vertex="1" parent="1">
          <mxGeometry x="600" y="710" width="200" height="60" as="geometry" />
        </mxCell>
        <mxCell id="ibaPYq17Of_60Ao_4P2H-76" value="db.php" style="rounded=1;fillColor=#10739E;strokeColor=none;shadow=1;gradientColor=none;fontStyle=1;fontColor=#FFFFFF;fontSize=14;" vertex="1" parent="1">
          <mxGeometry x="840" y="710" width="200" height="60" as="geometry" />
        </mxCell>
        <mxCell id="ibaPYq17Of_60Ao_4P2H-77" value="" style="edgeStyle=elbowEdgeStyle;elbow=vertical;strokeWidth=4;endArrow=block;endFill=1;fontStyle=1;dashed=1;strokeColor=#23445D;exitX=0.5;exitY=1;exitDx=0;exitDy=0;entryX=0.5;entryY=0;entryDx=0;entryDy=0;" edge="1" parent="1" source="ibaPYq17Of_60Ao_4P2H-60" target="ibaPYq17Of_60Ao_4P2H-76">
          <mxGeometry x="22" y="165.5" width="100" height="100" as="geometry">
            <mxPoint x="939.41" y="600" as="sourcePoint" />
            <mxPoint x="939.41" y="700" as="targetPoint" />
            <Array as="points">
              <mxPoint x="820" y="680" />
            </Array>
          </mxGeometry>
        </mxCell>
        <mxCell id="ibaPYq17Of_60Ao_4P2H-78" value="" style="edgeStyle=elbowEdgeStyle;elbow=vertical;strokeWidth=4;endArrow=block;endFill=1;fontStyle=1;dashed=1;strokeColor=#23445D;exitX=0.5;exitY=1;exitDx=0;exitDy=0;entryX=0.5;entryY=0;entryDx=0;entryDy=0;" edge="1" parent="1" source="ibaPYq17Of_60Ao_4P2H-60" target="ibaPYq17Of_60Ao_4P2H-79">
          <mxGeometry x="22" y="165.5" width="100" height="100" as="geometry">
            <mxPoint x="950" y="600" as="sourcePoint" />
            <mxPoint x="1190" y="700" as="targetPoint" />
            <Array as="points">
              <mxPoint x="940" y="680" />
            </Array>
          </mxGeometry>
        </mxCell>
        <mxCell id="ibaPYq17Of_60Ao_4P2H-79" value="email.php" style="rounded=1;fillColor=#10739E;strokeColor=none;shadow=1;gradientColor=none;fontStyle=1;fontColor=#FFFFFF;fontSize=14;" vertex="1" parent="1">
          <mxGeometry x="1080" y="710" width="200" height="60" as="geometry" />
        </mxCell>
        <mxCell id="ibaPYq17Of_60Ao_4P2H-80" value="Actions" style="rounded=1;fillColor=#10739E;strokeColor=none;shadow=1;gradientColor=none;fontStyle=1;fontColor=#FFFFFF;fontSize=14;" vertex="1" parent="1">
          <mxGeometry x="1360" y="710" width="200" height="60" as="geometry" />
        </mxCell>
        <mxCell id="ibaPYq17Of_60Ao_4P2H-81" value="" style="edgeStyle=elbowEdgeStyle;elbow=vertical;strokeWidth=4;endArrow=block;endFill=1;fontStyle=1;strokeColor=#23445D;exitX=0.5;exitY=1;exitDx=0;exitDy=0;entryX=0.5;entryY=0;entryDx=0;entryDy=0;" edge="1" parent="1" source="ibaPYq17Of_60Ao_4P2H-59" target="ibaPYq17Of_60Ao_4P2H-80">
          <mxGeometry x="22" y="165.5" width="100" height="100" as="geometry">
            <mxPoint x="1459.4099999999999" y="630" as="sourcePoint" />
            <mxPoint x="1459.4099999999999" y="710" as="targetPoint" />
          </mxGeometry>
        </mxCell>
        <mxCell id="ibaPYq17Of_60Ao_4P2H-82" value="Auth" style="rounded=1;fillColor=#10739E;strokeColor=none;shadow=1;gradientColor=none;fontStyle=1;fontColor=#FFFFFF;fontSize=14;" vertex="1" parent="1">
          <mxGeometry x="1360" y="870" width="200" height="60" as="geometry" />
        </mxCell>
        <mxCell id="ibaPYq17Of_60Ao_4P2H-83" value="" style="edgeStyle=elbowEdgeStyle;elbow=vertical;strokeWidth=4;endArrow=block;endFill=1;fontStyle=1;strokeColor=#23445D;exitX=0.5;exitY=1;exitDx=0;exitDy=0;entryX=0.5;entryY=0;entryDx=0;entryDy=0;" edge="1" parent="1" target="ibaPYq17Of_60Ao_4P2H-82" source="ibaPYq17Of_60Ao_4P2H-80">
          <mxGeometry x="22" y="165.5" width="100" height="100" as="geometry">
            <mxPoint x="1460" y="750" as="sourcePoint" />
            <mxPoint x="1459.4099999999999" y="870" as="targetPoint" />
          </mxGeometry>
        </mxCell>
        <mxCell id="ibaPYq17Of_60Ao_4P2H-84" value="Email" style="rounded=1;fillColor=#10739E;strokeColor=none;shadow=1;gradientColor=none;fontStyle=1;fontColor=#FFFFFF;fontSize=14;" vertex="1" parent="1">
          <mxGeometry x="1600" y="870" width="200" height="60" as="geometry" />
        </mxCell>
        <mxCell id="ibaPYq17Of_60Ao_4P2H-85" value="" style="edgeStyle=elbowEdgeStyle;elbow=vertical;strokeWidth=4;endArrow=block;endFill=1;fontStyle=1;strokeColor=#23445D;exitX=0.5;exitY=1;exitDx=0;exitDy=0;entryX=0.5;entryY=0;entryDx=0;entryDy=0;" edge="1" parent="1" source="ibaPYq17Of_60Ao_4P2H-80" target="ibaPYq17Of_60Ao_4P2H-84">
          <mxGeometry x="22" y="165.5" width="100" height="100" as="geometry">
            <mxPoint x="1699.41" y="760" as="sourcePoint" />
            <mxPoint x="1699.41" y="860" as="targetPoint" />
            <Array as="points">
              <mxPoint x="1580" y="840" />
            </Array>
          </mxGeometry>
        </mxCell>
        <mxCell id="ibaPYq17Of_60Ao_4P2H-86" value="RandomColor.php" style="rounded=1;fillColor=#10739E;strokeColor=none;shadow=1;gradientColor=none;fontStyle=1;fontColor=#FFFFFF;fontSize=14;" vertex="1" parent="1">
          <mxGeometry x="1840" y="870" width="200" height="60" as="geometry" />
        </mxCell>
        <mxCell id="ibaPYq17Of_60Ao_4P2H-87" value="" style="edgeStyle=elbowEdgeStyle;elbow=vertical;strokeWidth=4;endArrow=block;endFill=1;fontStyle=1;dashed=1;strokeColor=#23445D;" edge="1" parent="1">
          <mxGeometry x="22" y="165.5" width="100" height="100" as="geometry">
            <mxPoint x="990" y="200" as="sourcePoint" />
            <mxPoint x="990" y="280" as="targetPoint" />
            <Array as="points">
              <mxPoint x="980" y="230" />
            </Array>
          </mxGeometry>
        </mxCell>
        <mxCell id="ibaPYq17Of_60Ao_4P2H-89" value="Login.php" style="rounded=1;fillColor=#10739E;strokeColor=none;shadow=1;gradientColor=none;fontStyle=1;fontColor=#FFFFFF;fontSize=14;" vertex="1" parent="1">
          <mxGeometry x="1360" y="1030" width="200" height="60" as="geometry" />
        </mxCell>
        <mxCell id="ibaPYq17Of_60Ao_4P2H-90" value="" style="edgeStyle=elbowEdgeStyle;elbow=vertical;strokeWidth=4;endArrow=block;endFill=1;fontStyle=1;dashed=1;strokeColor=#23445D;entryX=0.5;entryY=0;entryDx=0;entryDy=0;exitX=0.5;exitY=1;exitDx=0;exitDy=0;" edge="1" parent="1" source="ibaPYq17Of_60Ao_4P2H-82" target="ibaPYq17Of_60Ao_4P2H-89">
          <mxGeometry x="22" y="165.5" width="100" height="100" as="geometry">
            <mxPoint x="1470" y="960" as="sourcePoint" />
            <mxPoint x="1900" y="1060" as="targetPoint" />
            <Array as="points">
              <mxPoint x="1500" y="980" />
            </Array>
          </mxGeometry>
        </mxCell>
        <mxCell id="ibaPYq17Of_60Ao_4P2H-91" value="favicon.ico" style="rounded=1;fillColor=#10739E;strokeColor=none;shadow=1;gradientColor=none;fontStyle=1;fontColor=#FFFFFF;fontSize=14;" vertex="1" parent="1">
          <mxGeometry x="2120" y="710" width="200" height="60" as="geometry" />
        </mxCell>
        <mxCell id="ibaPYq17Of_60Ao_4P2H-92" value="" style="edgeStyle=elbowEdgeStyle;elbow=vertical;strokeWidth=4;endArrow=block;endFill=1;fontStyle=1;dashed=1;strokeColor=#23445D;entryX=0.5;entryY=0;entryDx=0;entryDy=0;exitX=0.5;exitY=1;exitDx=0;exitDy=0;" edge="1" parent="1" source="ibaPYq17Of_60Ao_4P2H-63" target="ibaPYq17Of_60Ao_4P2H-91">
          <mxGeometry x="22" y="165.5" width="100" height="100" as="geometry">
            <mxPoint x="2230" y="610" as="sourcePoint" />
            <mxPoint x="2230" y="710" as="targetPoint" />
            <Array as="points">
              <mxPoint x="2270" y="660" />
            </Array>
          </mxGeometry>
        </mxCell>
        <mxCell id="ibaPYq17Of_60Ao_4P2H-93" value="index.php" style="rounded=1;fillColor=#10739E;strokeColor=none;shadow=1;gradientColor=none;fontStyle=1;fontColor=#FFFFFF;fontSize=14;" vertex="1" parent="1">
          <mxGeometry x="2360" y="710" width="200" height="60" as="geometry" />
        </mxCell>
        <mxCell id="ibaPYq17Of_60Ao_4P2H-94" value="" style="edgeStyle=elbowEdgeStyle;elbow=vertical;strokeWidth=4;endArrow=block;endFill=1;fontStyle=1;dashed=1;strokeColor=#23445D;entryX=0.5;entryY=0;entryDx=0;entryDy=0;exitX=0.5;exitY=1;exitDx=0;exitDy=0;" edge="1" parent="1" source="ibaPYq17Of_60Ao_4P2H-63" target="ibaPYq17Of_60Ao_4P2H-93">
          <mxGeometry x="22" y="165.5" width="100" height="100" as="geometry">
            <mxPoint x="2459.41" y="600" as="sourcePoint" />
            <mxPoint x="2459.41" y="700" as="targetPoint" />
            <Array as="points">
              <mxPoint x="2340" y="680" />
            </Array>
          </mxGeometry>
        </mxCell>
        <mxCell id="ibaPYq17Of_60Ao_4P2H-95" value="auth" style="rounded=1;fillColor=#10739E;strokeColor=none;shadow=1;gradientColor=none;fontStyle=1;fontColor=#FFFFFF;fontSize=14;" vertex="1" parent="1">
          <mxGeometry x="2600" y="710" width="200" height="60" as="geometry" />
        </mxCell>
        <mxCell id="ibaPYq17Of_60Ao_4P2H-96" value="index.php" style="rounded=1;fillColor=#10739E;strokeColor=none;shadow=1;gradientColor=none;fontStyle=1;fontColor=#FFFFFF;fontSize=14;" vertex="1" parent="1">
          <mxGeometry x="2600" y="1030" width="200" height="60" as="geometry" />
        </mxCell>
        <mxCell id="ibaPYq17Of_60Ao_4P2H-97" value="" style="edgeStyle=elbowEdgeStyle;elbow=vertical;strokeWidth=4;endArrow=block;endFill=1;fontStyle=1;dashed=1;strokeColor=#23445D;entryX=0.5;entryY=0;entryDx=0;entryDy=0;exitX=0.5;exitY=1;exitDx=0;exitDy=0;" edge="1" parent="1" source="ibaPYq17Of_60Ao_4P2H-100" target="ibaPYq17Of_60Ao_4P2H-96">
          <mxGeometry x="22" y="165.5" width="100" height="100" as="geometry">
            <mxPoint x="2760" y="980" as="sourcePoint" />
            <mxPoint x="2710" y="880" as="targetPoint" />
            <Array as="points">
              <mxPoint x="2720" y="970" />
            </Array>
          </mxGeometry>
        </mxCell>
        <mxCell id="ibaPYq17Of_60Ao_4P2H-98" value="" style="edgeStyle=elbowEdgeStyle;elbow=vertical;strokeWidth=4;endArrow=block;endFill=1;fontStyle=1;strokeColor=#23445D;entryX=0.5;entryY=0;entryDx=0;entryDy=0;exitX=0.75;exitY=1;exitDx=0;exitDy=0;" edge="1" parent="1" source="ibaPYq17Of_60Ao_4P2H-63" target="ibaPYq17Of_60Ao_4P2H-95">
          <mxGeometry x="22" y="165.5" width="100" height="100" as="geometry">
            <mxPoint x="2680" y="600" as="sourcePoint" />
            <mxPoint x="2680" y="680" as="targetPoint" />
            <Array as="points">
              <mxPoint x="2480" y="640" />
            </Array>
          </mxGeometry>
        </mxCell>
        <mxCell id="ibaPYq17Of_60Ao_4P2H-99" value="" style="edgeStyle=elbowEdgeStyle;elbow=vertical;strokeWidth=4;endArrow=block;endFill=1;fontStyle=1;strokeColor=#23445D;entryX=0.5;entryY=0;entryDx=0;entryDy=0;exitX=0.5;exitY=1;exitDx=0;exitDy=0;" edge="1" parent="1" source="ibaPYq17Of_60Ao_4P2H-95" target="ibaPYq17Of_60Ao_4P2H-100">
          <mxGeometry x="22" y="165.5" width="100" height="100" as="geometry">
            <mxPoint x="2690" y="780" as="sourcePoint" />
            <mxPoint x="3120" y="880" as="targetPoint" />
            <Array as="points">
              <mxPoint x="2700" y="820" />
            </Array>
          </mxGeometry>
        </mxCell>
        <mxCell id="ibaPYq17Of_60Ao_4P2H-100" value="login" style="rounded=1;fillColor=#10739E;strokeColor=none;shadow=1;gradientColor=none;fontStyle=1;fontColor=#FFFFFF;fontSize=14;" vertex="1" parent="1">
          <mxGeometry x="2600" y="870" width="200" height="60" as="geometry" />
        </mxCell>
        <mxCell id="ibaPYq17Of_60Ao_4P2H-101" value="" style="edgeStyle=elbowEdgeStyle;elbow=vertical;strokeWidth=4;endArrow=block;endFill=1;fontStyle=1;strokeColor=#23445D;entryX=0.5;entryY=0;entryDx=0;entryDy=0;exitX=0.5;exitY=1;exitDx=0;exitDy=0;" edge="1" parent="1" source="ibaPYq17Of_60Ao_4P2H-69" target="ibaPYq17Of_60Ao_4P2H-102">
          <mxGeometry x="22" y="165.5" width="100" height="100" as="geometry">
            <mxPoint x="2980" y="620" as="sourcePoint" />
            <mxPoint x="3410" y="720" as="targetPoint" />
            <Array as="points">
              <mxPoint x="3020" y="670" />
            </Array>
          </mxGeometry>
        </mxCell>
        <mxCell id="ibaPYq17Of_60Ao_4P2H-102" value="assets" style="rounded=1;fillColor=#10739E;strokeColor=none;shadow=1;gradientColor=none;fontStyle=1;fontColor=#FFFFFF;fontSize=14;" vertex="1" parent="1">
          <mxGeometry x="2880" y="710" width="200" height="60" as="geometry" />
        </mxCell>
        <mxCell id="ibaPYq17Of_60Ao_4P2H-103" value="css" style="rounded=1;fillColor=#10739E;strokeColor=none;shadow=1;gradientColor=none;fontStyle=1;fontColor=#FFFFFF;fontSize=14;" vertex="1" parent="1">
          <mxGeometry x="3360" y="710" width="200" height="60" as="geometry" />
        </mxCell>
        <mxCell id="ibaPYq17Of_60Ao_4P2H-104" value="js" style="rounded=1;fillColor=#10739E;strokeColor=none;shadow=1;gradientColor=none;fontStyle=1;fontColor=#FFFFFF;fontSize=14;" vertex="1" parent="1">
          <mxGeometry x="3600" y="710" width="200" height="60" as="geometry" />
        </mxCell>
        <mxCell id="ibaPYq17Of_60Ao_4P2H-105" value="layout" style="rounded=1;fillColor=#10739E;strokeColor=none;shadow=1;gradientColor=none;fontStyle=1;fontColor=#FFFFFF;fontSize=14;" vertex="1" parent="1">
          <mxGeometry x="3840" y="710" width="200" height="60" as="geometry" />
        </mxCell>
        <mxCell id="ibaPYq17Of_60Ao_4P2H-106" value="" style="edgeStyle=elbowEdgeStyle;elbow=vertical;strokeWidth=4;endArrow=block;endFill=1;fontStyle=1;strokeColor=#23445D;entryX=0.5;entryY=0;entryDx=0;entryDy=0;exitX=0.5;exitY=1;exitDx=0;exitDy=0;" edge="1" parent="1" source="ibaPYq17Of_60Ao_4P2H-69" target="ibaPYq17Of_60Ao_4P2H-103">
          <mxGeometry x="22" y="165.5" width="100" height="100" as="geometry">
            <mxPoint x="3230" y="600" as="sourcePoint" />
            <mxPoint x="3230" y="700" as="targetPoint" />
            <Array as="points">
              <mxPoint x="3210" y="680" />
            </Array>
          </mxGeometry>
        </mxCell>
        <mxCell id="ibaPYq17Of_60Ao_4P2H-107" value="" style="edgeStyle=elbowEdgeStyle;elbow=vertical;strokeWidth=4;endArrow=block;endFill=1;fontStyle=1;strokeColor=#23445D;entryX=0.5;entryY=0;entryDx=0;entryDy=0;exitX=0.5;exitY=1;exitDx=0;exitDy=0;" edge="1" parent="1" source="ibaPYq17Of_60Ao_4P2H-69" target="ibaPYq17Of_60Ao_4P2H-104">
          <mxGeometry x="22" y="165.5" width="100" height="100" as="geometry">
            <mxPoint x="3220" y="600" as="sourcePoint" />
            <mxPoint x="3460" y="700" as="targetPoint" />
            <Array as="points">
              <mxPoint x="3340" y="680" />
            </Array>
          </mxGeometry>
        </mxCell>
        <mxCell id="ibaPYq17Of_60Ao_4P2H-108" value="" style="edgeStyle=elbowEdgeStyle;elbow=vertical;strokeWidth=4;endArrow=block;endFill=1;fontStyle=1;strokeColor=#23445D;entryX=0.5;entryY=0;entryDx=0;entryDy=0;exitX=0.5;exitY=1;exitDx=0;exitDy=0;" edge="1" parent="1" source="ibaPYq17Of_60Ao_4P2H-69" target="ibaPYq17Of_60Ao_4P2H-105">
          <mxGeometry x="22" y="165.5" width="100" height="100" as="geometry">
            <mxPoint x="3210" y="570" as="sourcePoint" />
            <mxPoint x="3690" y="670" as="targetPoint" />
            <Array as="points">
              <mxPoint x="3450" y="680" />
            </Array>
          </mxGeometry>
        </mxCell>
        <mxCell id="ibaPYq17Of_60Ao_4P2H-109" value="svg" style="rounded=1;fillColor=#10739E;strokeColor=none;shadow=1;gradientColor=none;fontStyle=1;fontColor=#FFFFFF;fontSize=14;" vertex="1" parent="1">
          <mxGeometry x="2880" y="870" width="200" height="60" as="geometry" />
        </mxCell>
        <mxCell id="ibaPYq17Of_60Ao_4P2H-110" value="img" style="rounded=1;fillColor=#10739E;strokeColor=none;shadow=1;gradientColor=none;fontStyle=1;fontColor=#FFFFFF;fontSize=14;" vertex="1" parent="1">
          <mxGeometry x="3120" y="870" width="200" height="60" as="geometry" />
        </mxCell>
        <mxCell id="ibaPYq17Of_60Ao_4P2H-111" value="" style="edgeStyle=elbowEdgeStyle;elbow=vertical;strokeWidth=4;endArrow=block;endFill=1;fontStyle=1;strokeColor=#23445D;entryX=0.5;entryY=0;entryDx=0;entryDy=0;exitX=0.5;exitY=1;exitDx=0;exitDy=0;" edge="1" parent="1" source="ibaPYq17Of_60Ao_4P2H-102" target="ibaPYq17Of_60Ao_4P2H-109">
          <mxGeometry x="22" y="165.5" width="100" height="100" as="geometry">
            <mxPoint x="2970" y="790" as="sourcePoint" />
            <mxPoint x="2970" y="890" as="targetPoint" />
            <Array as="points">
              <mxPoint x="3010" y="850" />
            </Array>
          </mxGeometry>
        </mxCell>
        <mxCell id="ibaPYq17Of_60Ao_4P2H-112" value="" style="edgeStyle=elbowEdgeStyle;elbow=vertical;strokeWidth=4;endArrow=block;endFill=1;fontStyle=1;strokeColor=#23445D;entryX=0.5;entryY=0;entryDx=0;entryDy=0;exitX=0.5;exitY=1;exitDx=0;exitDy=0;" edge="1" parent="1" source="ibaPYq17Of_60Ao_4P2H-102" target="ibaPYq17Of_60Ao_4P2H-110">
          <mxGeometry x="22" y="165.5" width="100" height="100" as="geometry">
            <mxPoint x="3230" y="760" as="sourcePoint" />
            <mxPoint x="3230" y="860" as="targetPoint" />
            <Array as="points">
              <mxPoint x="3260" y="840" />
            </Array>
          </mxGeometry>
        </mxCell>
        <mxCell id="ibaPYq17Of_60Ao_4P2H-113" value="" style="edgeStyle=elbowEdgeStyle;elbow=vertical;strokeWidth=4;endArrow=block;endFill=1;fontStyle=1;dashed=1;strokeColor=#23445D;entryX=0.5;entryY=0;entryDx=0;entryDy=0;exitX=0.5;exitY=1;exitDx=0;exitDy=0;" edge="1" parent="1" source="ibaPYq17Of_60Ao_4P2H-109" target="ibaPYq17Of_60Ao_4P2H-114">
          <mxGeometry x="22" y="165.5" width="100" height="100" as="geometry">
            <mxPoint x="2970" y="940" as="sourcePoint" />
            <mxPoint x="2970" y="1040" as="targetPoint" />
            <Array as="points">
              <mxPoint x="2990" y="980" />
            </Array>
          </mxGeometry>
        </mxCell>
        <mxCell id="ibaPYq17Of_60Ao_4P2H-114" value="logo.svg" style="rounded=1;fillColor=#10739E;strokeColor=none;shadow=1;gradientColor=none;fontStyle=1;fontColor=#FFFFFF;fontSize=14;" vertex="1" parent="1">
          <mxGeometry x="2880" y="1030" width="200" height="60" as="geometry" />
        </mxCell>
        <mxCell id="ibaPYq17Of_60Ao_4P2H-115" value="header.php" style="rounded=1;fillColor=#10739E;strokeColor=none;shadow=1;gradientColor=none;fontStyle=1;fontColor=#FFFFFF;fontSize=14;" vertex="1" parent="1">
          <mxGeometry x="4080" y="870" width="200" height="60" as="geometry" />
        </mxCell>
        <mxCell id="ibaPYq17Of_60Ao_4P2H-116" value="footer.php" style="rounded=1;fillColor=#10739E;strokeColor=none;shadow=1;gradientColor=none;fontStyle=1;fontColor=#FFFFFF;fontSize=14;" vertex="1" parent="1">
          <mxGeometry x="4320" y="870" width="200" height="60" as="geometry" />
        </mxCell>
        <mxCell id="ibaPYq17Of_60Ao_4P2H-117" value="head.php" style="rounded=1;fillColor=#10739E;strokeColor=none;shadow=1;gradientColor=none;fontStyle=1;fontColor=#FFFFFF;fontSize=14;" vertex="1" parent="1">
          <mxGeometry x="3840" y="870" width="200" height="60" as="geometry" />
        </mxCell>
        <mxCell id="ibaPYq17Of_60Ao_4P2H-118" value="auth" style="rounded=1;fillColor=#10739E;strokeColor=none;shadow=1;gradientColor=none;fontStyle=1;fontColor=#FFFFFF;fontSize=14;" vertex="1" parent="1">
          <mxGeometry x="4560" y="870" width="200" height="60" as="geometry" />
        </mxCell>
        <mxCell id="ibaPYq17Of_60Ao_4P2H-119" value="" style="edgeStyle=elbowEdgeStyle;elbow=vertical;strokeWidth=4;endArrow=block;endFill=1;fontStyle=1;dashed=1;strokeColor=#23445D;entryX=0.5;entryY=0;entryDx=0;entryDy=0;exitX=0.5;exitY=1;exitDx=0;exitDy=0;" edge="1" parent="1" source="ibaPYq17Of_60Ao_4P2H-105" target="ibaPYq17Of_60Ao_4P2H-117">
          <mxGeometry x="22" y="165.5" width="100" height="100" as="geometry">
            <mxPoint x="3939.52" y="780" as="sourcePoint" />
            <mxPoint x="3939.52" y="880" as="targetPoint" />
            <Array as="points">
              <mxPoint x="3949.52" y="830" />
            </Array>
          </mxGeometry>
        </mxCell>
        <mxCell id="ibaPYq17Of_60Ao_4P2H-120" value="" style="edgeStyle=elbowEdgeStyle;elbow=vertical;strokeWidth=4;endArrow=block;endFill=1;fontStyle=1;dashed=1;strokeColor=#23445D;entryX=0.549;entryY=0.039;entryDx=0;entryDy=0;exitX=0.5;exitY=1;exitDx=0;exitDy=0;entryPerimeter=0;" edge="1" parent="1" source="ibaPYq17Of_60Ao_4P2H-105" target="ibaPYq17Of_60Ao_4P2H-115">
          <mxGeometry x="22" y="165.5" width="100" height="100" as="geometry">
            <mxPoint x="4190" y="740" as="sourcePoint" />
            <mxPoint x="4190" y="840" as="targetPoint" />
            <Array as="points">
              <mxPoint x="4050" y="840" />
            </Array>
          </mxGeometry>
        </mxCell>
        <mxCell id="ibaPYq17Of_60Ao_4P2H-121" value="" style="edgeStyle=elbowEdgeStyle;elbow=vertical;strokeWidth=4;endArrow=block;endFill=1;fontStyle=1;dashed=1;strokeColor=#23445D;entryX=0.5;entryY=0;entryDx=0;entryDy=0;exitX=0.5;exitY=1;exitDx=0;exitDy=0;" edge="1" parent="1" source="ibaPYq17Of_60Ao_4P2H-105" target="ibaPYq17Of_60Ao_4P2H-116">
          <mxGeometry x="22" y="165.5" width="100" height="100" as="geometry">
            <mxPoint x="3950" y="750" as="sourcePoint" />
            <mxPoint x="4430" y="850" as="targetPoint" />
            <Array as="points">
              <mxPoint x="4170" y="840" />
            </Array>
          </mxGeometry>
        </mxCell>
        <mxCell id="ibaPYq17Of_60Ao_4P2H-122" value="" style="edgeStyle=elbowEdgeStyle;elbow=vertical;strokeWidth=4;endArrow=block;endFill=1;fontStyle=1;strokeColor=#23445D;exitX=0.75;exitY=1;exitDx=0;exitDy=0;" edge="1" parent="1" source="ibaPYq17Of_60Ao_4P2H-105" target="ibaPYq17Of_60Ao_4P2H-118">
          <mxGeometry x="22" y="165.5" width="100" height="100" as="geometry">
            <mxPoint x="3980" y="790" as="sourcePoint" />
            <mxPoint x="4940" y="890" as="targetPoint" />
            <Array as="points">
              <mxPoint x="4450" y="800" />
            </Array>
          </mxGeometry>
        </mxCell>
        <mxCell id="ibaPYq17Of_60Ao_4P2H-124" value="home.php" style="rounded=1;fillColor=#10739E;strokeColor=none;shadow=1;gradientColor=none;fontStyle=1;fontColor=#FFFFFF;fontSize=14;" vertex="1" parent="1">
          <mxGeometry x="4840" y="710" width="200" height="60" as="geometry" />
        </mxCell>
        <mxCell id="ibaPYq17Of_60Ao_4P2H-125" value="" style="edgeStyle=elbowEdgeStyle;elbow=vertical;strokeWidth=4;endArrow=block;endFill=1;fontStyle=1;dashed=1;strokeColor=#23445D;entryX=0.5;entryY=0;entryDx=0;entryDy=0;exitX=0.5;exitY=1;exitDx=0;exitDy=0;" edge="1" parent="1" source="ibaPYq17Of_60Ao_4P2H-70" target="ibaPYq17Of_60Ao_4P2H-124">
          <mxGeometry x="22" y="165.5" width="100" height="100" as="geometry">
            <mxPoint x="4870" y="630" as="sourcePoint" />
            <mxPoint x="4870" y="730" as="targetPoint" />
            <Array as="points">
              <mxPoint x="4879.52" y="690" />
            </Array>
          </mxGeometry>
        </mxCell>
        <mxCell id="ibaPYq17Of_60Ao_4P2H-126" value="auth" style="rounded=1;fillColor=#10739E;strokeColor=none;shadow=1;gradientColor=none;fontStyle=1;fontColor=#FFFFFF;fontSize=14;" vertex="1" parent="1">
          <mxGeometry x="5080" y="710" width="200" height="60" as="geometry" />
        </mxCell>
        <mxCell id="ibaPYq17Of_60Ao_4P2H-127" value="" style="edgeStyle=elbowEdgeStyle;elbow=vertical;strokeWidth=4;endArrow=block;endFill=1;fontStyle=1;strokeColor=#23445D;exitX=0.671;exitY=1.007;exitDx=0;exitDy=0;exitPerimeter=0;entryX=0.5;entryY=0;entryDx=0;entryDy=0;" edge="1" parent="1" source="ibaPYq17Of_60Ao_4P2H-70" target="ibaPYq17Of_60Ao_4P2H-126">
          <mxGeometry x="22" y="165.5" width="100" height="100" as="geometry">
            <mxPoint x="5090" y="630" as="sourcePoint" />
            <mxPoint x="5760" y="730" as="targetPoint" />
            <Array as="points">
              <mxPoint x="5190" y="640" />
            </Array>
          </mxGeometry>
        </mxCell>
        <mxCell id="ibaPYq17Of_60Ao_4P2H-128" value="login.php" style="rounded=1;fillColor=#10739E;strokeColor=none;shadow=1;gradientColor=none;fontStyle=1;fontColor=#FFFFFF;fontSize=14;" vertex="1" parent="1">
          <mxGeometry x="5080" y="870" width="200" height="60" as="geometry" />
        </mxCell>
        <mxCell id="ibaPYq17Of_60Ao_4P2H-129" value="" style="edgeStyle=elbowEdgeStyle;elbow=vertical;strokeWidth=4;endArrow=block;endFill=1;fontStyle=1;dashed=1;strokeColor=#23445D;entryX=0.5;entryY=0;entryDx=0;entryDy=0;exitX=0.5;exitY=1;exitDx=0;exitDy=0;" edge="1" parent="1" source="ibaPYq17Of_60Ao_4P2H-126" target="ibaPYq17Of_60Ao_4P2H-128">
          <mxGeometry x="22" y="165.5" width="100" height="100" as="geometry">
            <mxPoint x="5179.29" y="780" as="sourcePoint" />
            <mxPoint x="5179.29" y="880" as="targetPoint" />
            <Array as="points">
              <mxPoint x="5118.81" y="860" />
            </Array>
          </mxGeometry>
        </mxCell>
        <mxCell id="ibaPYq17Of_60Ao_4P2H-132" value="&lt;h1 style=&quot;margin-top: 0px;&quot;&gt;Fichier&lt;/h1&gt;" style="text;html=1;whiteSpace=wrap;overflow=hidden;rounded=0;" vertex="1" parent="1">
          <mxGeometry x="1010" y="200" width="180" height="40" as="geometry" />
        </mxCell>
        <mxCell id="ibaPYq17Of_60Ao_4P2H-133" value="&lt;h1 style=&quot;margin-top: 0px;&quot;&gt;Dossier&lt;/h1&gt;" style="text;html=1;whiteSpace=wrap;overflow=hidden;rounded=0;" vertex="1" parent="1">
          <mxGeometry x="1010" y="320" width="180" height="40" as="geometry" />
        </mxCell>
      </root>
    </mxGraphModel>
  </diagram>
</mxfile>
